<svg xmlns="http://www.w3.org/2000/svg" width="1200" height="1500" viewBox="0 0 1200 1500" role="img" aria-labelledby="title desc">
  <title id="title">CANxiety dark streetwear campaign</title>
  <desc id="desc">Cinematic silhouette of a figure in dark streetwear beneath a red spotlight.</desc>
  <defs>
    <radialGradient id="spot" cx="52%" cy="22%" r="75%"><stop offset="0" stop-color="#a61727"/><stop offset=".28" stop-color="#361116"/><stop offset=".72" stop-color="#0b0b0b"/><stop offset="1" stop-color="#030303"/></radialGradient>
    <linearGradient id="body" x1="0" y1="0" x2="1" y2="1"><stop stop-color="#343434"/><stop offset=".45" stop-color="#080808"/><stop offset="1" stop-color="#1b1b1b"/></linearGradient>
    <filter id="blur"><feGaussianBlur stdDeviation="45"/></filter>
  </defs>
  <rect width="1200" height="1500" fill="url(#spot)"/>
  <ellipse cx="630" cy="1390" rx="465" ry="85" fill="#000" opacity=".9" filter="url(#blur)"/>
  <path d="M394 677Q422 530 513 482Q512 402 543 338Q567 286 620 286Q673 286 699 338Q730 402 727 482Q822 531 851 677L942 1175L784 1212L752 913L807 1425H438L495 913L458 1212L300 1175Z" fill="url(#body)"/>
  <ellipse cx="621" cy="330" rx="86" ry="104" fill="#111"/>
  <path d="M519 496Q620 570 727 496L782 612Q616 706 467 612Z" fill="#121212" stroke="#464646" stroke-width="3"/>
  <path d="M482 641Q620 692 764 641" fill="none" stroke="#2d2d2d" stroke-width="5"/>
  <text x="620" y="790" fill="#ef1732" font-family="Arial, Helvetica, sans-serif" font-size="72" font-weight="900" text-anchor="middle" letter-spacing="-6">CAN</text>
  <text x="620" y="835" fill="#aaa" font-family="Arial, Helvetica, sans-serif" font-size="18" font-weight="700" text-anchor="middle" letter-spacing="8">STILL MOVE</text>
  <line x1="519" y1="861" x2="721" y2="861" stroke="#e8122b" stroke-width="7"/>
  <text x="62" y="77" fill="#ddd" font-family="Arial, Helvetica, sans-serif" font-size="18" font-weight="700" letter-spacing="6">CANXIETY / NORTH YORKSHIRE</text>
  <text x="1138" y="1415" fill="#888" font-family="Arial, Helvetica, sans-serif" font-size="16" font-weight="700" letter-spacing="4" text-anchor="end">PRESSURE MADE VISIBLE</text>
  <rect x="38" y="38" width="1124" height="1424" fill="none" stroke="#fff" opacity=".2"/>
</svg>
