<svg xmlns="http://www.w3.org/2000/svg" width="1200" height="1500" viewBox="0 0 1200 1500" role="img" aria-labelledby="title desc">
  <title id="title">CANxiety garment label detail</title>
  <desc id="desc">Macro editorial artwork showing a stitched CANxiety garment label and red thread.</desc>
  <defs>
    <linearGradient id="cloth" x1="0" y1="0" x2="1" y2="1"><stop stop-color="#2d2d2d"/><stop offset=".35" stop-color="#0a0a0a"/><stop offset=".7" stop-color="#191919"/><stop offset="1" stop-color="#050505"/></linearGradient>
    <filter id="shadow"><feDropShadow dx="18" dy="28" stdDeviation="22" flood-color="#000" flood-opacity=".7"/></filter>
  </defs>
  <rect width="1200" height="1500" fill="url(#cloth)"/>
  <g opacity=".26" stroke="#666" stroke-width="3">
    <path d="M-80 240Q400 410 1280 170"/><path d="M-90 290Q450 440 1270 225"/><path d="M-100 1180Q420 1040 1300 1300"/><path d="M-100 1240Q470 1090 1300 1355"/>
  </g>
  <g transform="rotate(-8 600 745)" filter="url(#shadow)">
    <rect x="224" y="470" width="752" height="550" fill="#e7e3da"/>
    <rect x="250" y="496" width="700" height="498" fill="none" stroke="#151515" stroke-width="3" stroke-dasharray="12 10"/>
    <text x="600" y="690" fill="#080808" font-family="Arial" font-size="155" font-weight="900" text-anchor="middle" letter-spacing="-15">CAN</text>
    <text x="600" y="765" fill="#161616" font-family="Arial" font-size="32" font-weight="700" text-anchor="middle" letter-spacing="18">XIETY</text>
    <line x1="390" y1="810" x2="810" y2="810" stroke="#df1027" stroke-width="15"/>
    <text x="600" y="880" fill="#333" font-family="Arial" font-size="18" font-weight="700" text-anchor="middle" letter-spacing="7">NORTH YORKSHIRE / UK</text>
    <text x="600" y="923" fill="#555" font-family="Arial" font-size="15" text-anchor="middle" letter-spacing="4">PRESSURE · IDENTITY · MOVEMENT</text>
  </g>
  <path d="M120 365C380 570 770 300 1085 570S810 1090 1030 1270" fill="none" stroke="#e8122b" stroke-width="12" stroke-linecap="round"/>
  <circle cx="120" cy="365" r="18" fill="#e8122b"/><circle cx="1030" cy="1270" r="18" fill="#e8122b"/>
  <text x="60" y="90" fill="#aaa" font-family="Arial" font-size="19" font-weight="700" letter-spacing="5">THE SIGNAL / DETAIL STUDY 05</text>
</svg>
